<?xml version="1.0" encoding="iso-8859-1"?>
<!-- Generator: Adobe Illustrator 19.0.0, SVG Export Plug-In . SVG Version: 6.00 Build 0)  -->
<svg version="1.1" id="Capa_1" xmlns="http://www.w3.org/2000/svg" xmlns:xlink="http://www.w3.org/1999/xlink" x="0px" y="0px"
	 viewBox="0 0 480 480" style="enable-background:new 0 0 480 480;" xml:space="preserve">
<g>
	<g>
		<path fill="#eee" d="M392,0c-45.609,0-80,30.953-80,72c-0.783,34.563,26.6,63.217,61.163,64c0.945,0.021,1.891,0.021,2.837,0
			c26.93,0,56-18.352,56-48c1.172-25.338-18.418-46.828-43.755-48c-1.414-0.065-2.83-0.065-4.245,0c-21.633,1.07-38.93,18.367-40,40
			c0,4.418,3.582,8,8,8s8-3.582,8-8c1.105-12.769,11.231-22.895,24-24c16.522-1.151,30.849,11.31,32,27.832
			c0.097,1.388,0.097,2.78,0,4.168c0,19.141-20.68,32-40,32c-25.921,0.589-47.411-19.947-48-45.868
			c-0.016-0.711-0.016-1.422,0-2.132c0-31.926,27.516-56,64-56c39.703,0,72,35.887,72,80c0,46.41-31.523,96-120,96H8
			c-4.418,0-8,3.582-8,8s3.582,8,8,8h336c100.383,0,136-60.332,136-112C480,43.066,440.523,0,392,0z"/>
	</g>
</g>
<g>
	<g>
		<path fill="#eee" d="M216,272H8c-4.418,0-8,3.582-8,8s3.582,8,8,8h208c88.477,0,120,49.59,120,96c0,44.113-32.297,80-72,80
			c-36.484,0-64-24.074-64-56c-0.589-25.921,19.947-47.411,45.868-48c0.711-0.016,1.422-0.016,2.132,0c19.32,0,40,12.859,40,32
			c1.151,16.522-11.31,30.849-27.832,32c-1.388,0.097-2.78,0.097-4.168,0c-12.769-1.105-22.895-11.231-24-24c0-4.418-3.582-8-8-8
			s-8,3.582-8,8c1.07,21.633,18.367,38.93,40,40c25.338,1.172,46.828-18.418,48-43.755c0.065-1.414,0.065-2.83,0-4.245
			c0-29.648-29.07-48-56-48c-34.563-0.783-63.217,26.6-64,61.163c-0.021,0.946-0.021,1.891,0,2.837c0,41.047,34.391,72,80,72
			c48.523,0,88-43.066,88-96C352,332.332,316.383,272,216,272z"/>
	</g>
</g>
<g>
	<g>
		<path fill="#eee" d="M477.919,298.619c-0.002-0.002-0.003-0.004-0.005-0.005v0c-8.433-9.823-16.203-20.196-23.258-31.051
			C438.935,244.178,412.148,230.696,384,232c-12.989-0.058-25.887,2.171-38.103,6.585l-12.241-12.241
			c-3.152-3.096-8.216-3.05-11.312,0.101c-3.057,3.112-3.057,8.099,0,11.211l12.756,12.756c-5.458,18.444-2.074,38.376,9.165,53.986
			C359.445,324.264,382.999,335.942,408,336c25.408-0.556,49.87-9.747,69.359-26.059C480.641,306.969,480.891,301.9,477.919,298.619
			z M408,320c-19.845-0.12-38.545-9.314-50.758-24.957c-6.675-9.198-9.658-20.564-8.361-31.854
			c16.535,14.79,36.027,25.893,57.182,32.573c4.293,1.043,8.62-1.591,9.663-5.884c1.034-4.256-1.546-8.552-5.788-9.639
			c-18.696-6.09-35.912-16.02-50.545-29.154c8.04-2.059,16.308-3.095,24.607-3.084c22.801-1.341,44.612,9.475,57.344,28.438
			c8.039,12.066,14.75,20.855,19.148,26.313C445.092,313.577,426.821,319.582,408,320z"/>
	</g>
</g>
<g>
	<g>
		<path fill="#eee" d="M209.824,80c-0.608-0.018-1.216-0.018-1.824,0c-7.116-0.219-14.096,1.977-19.805,6.23C182.508,67.043,169.602,48,144,48
			c-25.602,0-38.508,19.043-44.195,38.23C94.096,81.977,87.116,79.781,80,80c-17.169-0.504-31.496,13.007-32,30.176
			c-0.018,0.608-0.018,1.216,0,1.824v32h192v-32C240.504,94.831,226.993,80.504,209.824,80z M224,128H64v-16
			c-0.535-8.302,5.762-15.465,14.063-16c0.645-0.042,1.292-0.042,1.937,0c8.304-0.533,15.467,5.766,16,14.07
			c0.041,0.643,0.041,1.288,0,1.93l16,0.012C112.008,110.051,112.516,64,144,64c31.484,0,31.992,46.051,32,48.012L192,112
			c0-8.837,7.163-16,16-16s16,7.163,16,16V128z"/>
	</g>
</g>
<g>
</g>
<g>
</g>
<g>
</g>
<g>
</g>
<g>
</g>
<g>
</g>
<g>
</g>
<g>
</g>
<g>
</g>
<g>
</g>
<g>
</g>
<g>
</g>
<g>
</g>
<g>
</g>
<g>
</g>
</svg>
